<svg width="147" height="73" viewBox="0 0 147 73" fill="none" xmlns="http://www.w3.org/2000/svg">
<path d="M49.7071 72.1191H96.9724C103.808 72.1191 107.031 70.1172 107.031 65.7227C107.031 55.6641 94.3364 40.9668 73.3399 40.9668C52.3926 40.9668 39.6485 55.6641 39.6485 65.7227C39.6485 70.1172 42.9199 72.1191 49.7071 72.1191ZM73.3399 35.8399C82.5684 35.8399 90.1367 27.5879 90.1367 17.6758C90.1367 7.7637 82.7149 0 73.3399 0C64.1114 0 56.543 7.9102 56.543 17.7734C56.543 27.6367 64.1602 35.8399 73.3399 35.8399ZM47.5098 65.5274C46.9727 65.5274 46.6797 65.3809 46.6797 64.8438C46.6797 59.1309 56.0547 47.5586 73.3399 47.5586C90.6254 47.5586 100 59.1309 100 64.8438C100 65.3809 99.7074 65.5274 99.1704 65.5274H47.5098ZM73.3399 29.2481C68.1641 29.2481 63.5742 24.1699 63.5742 17.7734C63.5742 11.377 68.0176 6.5918 73.3399 6.5918C78.711 6.5918 83.1055 11.2793 83.1055 17.6758C83.1055 24.0723 78.6133 29.2481 73.3399 29.2481Z" fill="#E5E5E5"/>
<path d="M29.2969 36.7188C37.2559 36.7188 43.8477 29.4922 43.8477 20.752C43.8477 12.1094 37.4024 5.22461 29.2969 5.22461C21.2891 5.22461 14.6973 12.2559 14.6973 20.8008C14.6973 29.541 21.3379 36.7188 29.2969 36.7188ZM117.431 36.7188C125.39 36.7188 132.031 29.541 132.031 20.8008C132.031 12.2559 125.439 5.22461 117.431 5.22461C109.326 5.22461 102.88 12.1094 102.88 20.752C102.88 29.4922 109.472 36.7188 117.431 36.7188ZM138.427 72.1192C143.945 72.1192 146.728 69.9219 146.728 65.4785C146.728 52.3926 133.252 40.918 117.48 40.918C111.425 40.918 105.713 42.4316 100.83 45.4102C102.783 46.7773 104.394 48.3399 105.761 50.0488C109.277 48.291 113.134 47.3633 117.48 47.3633C129.638 47.3633 140.234 56.0059 140.234 65.0391C140.234 65.4785 139.99 65.6738 139.599 65.6738H112.548C112.939 68.3106 111.425 70.9473 109.326 72.1192H138.427ZM8.30078 72.1192H37.4024C35.3028 70.9473 33.7891 68.3106 34.1797 65.6738H7.12888C6.73828 65.6738 6.49418 65.4785 6.49418 65.0391C6.49418 56.0059 17.0899 47.3633 29.2481 47.3633C33.5938 47.3633 37.5 48.291 40.9668 50.0488C42.334 48.3399 43.9453 46.7773 45.8985 45.4102C41.0156 42.4316 35.3028 40.918 29.2481 40.918C13.4766 40.918 0 52.3926 0 65.4785C0 69.9219 2.78318 72.1192 8.30078 72.1192ZM29.2969 30.2246C24.9512 30.2246 21.1914 25.9766 21.1914 20.8008C21.1914 15.7715 24.8535 11.7188 29.2969 11.7188C33.7891 11.7188 37.4024 15.6738 37.4024 20.752C37.4024 25.9766 33.6426 30.2246 29.2969 30.2246ZM117.431 30.2246C113.086 30.2246 109.326 25.9766 109.326 20.752C109.326 15.6738 112.939 11.7188 117.431 11.7188C121.875 11.7188 125.537 15.7715 125.537 20.8008C125.537 25.9766 121.777 30.2246 117.431 30.2246Z" fill="#E5E5E5"/>
</svg>
