<svg width="80" height="80" viewBox="0 0 80 80" fill="none" xmlns="http://www.w3.org/2000/svg">
<path d="M20.289 44.0918H39.7714C41.4804 44.0918 42.7988 42.7734 42.7988 41.1133V15.9668C42.7988 14.2578 41.4804 12.9395 39.7714 12.9395C38.1112 12.9395 36.7929 14.2578 36.7929 15.9668V38.0859H20.289C18.58 38.0859 17.3105 39.4043 17.3105 41.1133C17.3105 42.7734 18.58 44.0918 20.289 44.0918Z" fill="#E5E5E5"/>
<path d="M39.8202 79.1504C61.3534 79.1504 79.2734 61.2793 79.2734 39.7461C79.2734 18.2129 61.3046 0.341797 39.7714 0.341797C18.287 0.341797 0.415894 18.2129 0.415894 39.7461C0.415894 61.2793 18.3359 79.1504 39.8202 79.1504ZM39.8202 71.7285C22.0956 71.7285 7.93545 57.5195 7.93545 39.7461C7.93545 21.9727 22.0468 7.7637 39.7714 7.7637C57.5448 7.7637 71.8027 21.9727 71.8027 39.7461C71.8027 57.5195 57.5937 71.7285 39.8202 71.7285Z" fill="#E5E5E5"/>
</svg>
