<svg width="14" height="20" viewBox="0 0 14 20" fill="none" xmlns="http://www.w3.org/2000/svg">
<path d="M7.00001 13.0952C8.92683 13.0952 10.2439 11.7143 10.2439 9.66668V3.42857C10.2439 1.38096 8.92683 0 7.00001 0C5.06098 0 3.74392 1.38096 3.74392 3.42857V9.66668C3.74392 11.7143 5.06098 13.0952 7.00001 13.0952ZM0 9.76191C0 13.5 2.5122 16.1071 6.17075 16.4524V18.3929H2.73171C2.26831 18.3929 1.90244 18.75 1.90244 19.1905C1.90244 19.6429 2.26831 20 2.73171 20H11.2683C11.7195 20 12.0854 19.6429 12.0854 19.1905C12.0854 18.75 11.7195 18.3929 11.2683 18.3929H7.81709V16.4524C11.4878 16.1071 14 13.5 14 9.76191V7.83335C14 7.38096 13.6342 7.02381 13.1707 7.02381C12.7195 7.02381 12.3537 7.38096 12.3537 7.83335V9.69047C12.3537 12.8929 10.2439 15 7.00001 15C3.75611 15 1.64634 12.8929 1.64634 9.69047V7.83335C1.64634 7.38096 1.2805 7.02381 0.817077 7.02381C0.365868 7.02381 0 7.38096 0 7.83335V9.76191Z" fill="#E5E5E5"/>
</svg>
