<svg width="9" height="8" viewBox="0 0 9 8" fill="none" xmlns="http://www.w3.org/2000/svg">
<path d="M0.997807 8H5.68654C6.36467 8 6.68435 7.80339 6.68435 7.37181C6.68435 6.38399 5.42498 4.9406 3.34217 4.9406C1.26422 4.9406 0 6.38399 0 7.37181C0 7.80339 0.32453 8 0.997807 8ZM3.34217 4.4371C4.25764 4.4371 5.00842 3.6267 5.00842 2.65325C5.00842 1.67981 4.26733 0.917358 3.34217 0.917358C2.42671 0.917358 1.67594 1.6942 1.67594 2.66284C1.67594 3.63149 2.43155 4.4371 3.34217 4.4371ZM0.779846 7.35263C0.726556 7.35263 0.6975 7.33825 0.6975 7.2855C0.6975 6.72445 1.6275 5.58797 3.34217 5.58797C5.05686 5.58797 5.98685 6.72445 5.98685 7.2855C5.98685 7.33825 5.95779 7.35263 5.90451 7.35263H0.779846ZM3.34217 3.78974C2.82873 3.78974 2.37343 3.29102 2.37343 2.66284C2.37343 2.03466 2.81421 1.56472 3.34217 1.56472C3.87498 1.56472 4.31093 2.02507 4.31093 2.65325C4.31093 3.28144 3.8653 3.78974 3.34217 3.78974Z" fill="#8C8C8C"/>
<path d="M6.09829 4.26921C6.24361 4.36511 6.45189 4.33154 6.56814 4.16851C6.85876 3.78488 7.02345 3.21425 7.02345 2.6532C7.02345 2.08735 6.85876 1.5215 6.56814 1.13789C6.45189 0.970049 6.24361 0.936481 6.09829 1.04198C5.92392 1.16186 5.89487 1.37286 6.03048 1.54549C6.23392 1.82361 6.35501 2.2408 6.35501 2.6532C6.35501 3.0608 6.22908 3.47319 6.03048 3.75612C5.89971 3.93833 5.92392 4.14453 6.09829 4.26921Z" fill="#8C8C8C"/>
<path d="M7.55137 5.24271C7.71121 5.3482 7.90981 5.30984 8.0309 5.1468C8.51527 4.47546 8.79136 3.57395 8.79136 2.65325C8.79136 1.72777 8.52011 0.816655 8.0309 0.154904C7.90981 -0.00813036 7.71121 -0.0464896 7.55137 0.0590049C7.39637 0.169292 7.3673 0.370695 7.49324 0.543324C7.89042 1.10917 8.12293 1.87162 8.12293 2.65325C8.12293 3.43008 7.88074 4.18774 7.49324 4.75838C7.37214 4.93581 7.39637 5.13721 7.55137 5.24271Z" fill="#8C8C8C"/>
</svg>
