<svg width="72" height="99" viewBox="0 0 72 99" fill="none" xmlns="http://www.w3.org/2000/svg">
<path d="M17.9907 91.4062H41.0375L40.9887 84.9121H30.0024L25.7055 37.4511C25.2661 32.666 28.1469 29.6386 33.0786 29.6386C38.059 29.6386 40.9399 32.666 40.5004 37.4511L36.7895 78.9062L43.479 75.8789L46.9458 37.6953C47.2875 33.6914 49.8754 31.5918 53.0981 31.5918C56.809 31.5918 60.52 34.4238 59.5434 39.4043L54.3676 66.1132L60.9594 66.1621L65.9399 39.7461C67.6489 30.9082 60.8618 25.0976 53.0981 25.0976C49.7778 25.0976 46.7993 26.416 44.602 28.6132C42.2094 25.2441 38.1567 23.1445 33.0786 23.1445C28.0493 23.1445 23.9965 25.2441 21.604 28.6132C19.4067 26.416 16.4282 25.0976 13.059 25.0976C5.3442 25.0976 -1.44292 30.9082 0.2661 39.7461L8.2739 82.1289C9.3969 87.9882 12.229 91.4062 17.9907 91.4062ZM54.3188 98.0468C58.0786 98.0468 61.5454 95.9961 63.352 92.8222C67.893 91.5527 71.1645 87.3535 71.1645 82.5683C71.1645 78.2714 68.5278 74.5605 64.9633 72.5097C64.6215 66.9433 59.9829 63.3789 54.3188 63.3789C48.7036 63.3789 44.1137 66.8457 43.6743 72.2656C39.0356 73.4375 35.5688 77.6367 35.5688 82.5683C35.5688 88.0859 39.768 92.5781 45.0903 93.164C47.1899 96.0937 50.6567 98.0468 54.3188 98.0468ZM18.186 84.9121C16.3305 84.9121 15.2075 83.789 14.8657 81.8847L6.6625 39.4043C5.686 34.4238 9.3969 31.5918 13.059 31.5918C16.3305 31.5918 18.9184 33.6914 19.2602 37.6953L23.5083 84.9121H18.186ZM7.6391 32.8613L10.1293 26.9531C8.1762 26.416 6.7602 24.6582 6.7602 22.5585C6.7602 18.9453 10.9106 16.7968 14.7192 18.3593C14.3286 14.4043 18.479 11.6699 22.2875 13.7207C20.7251 8.8378 23.6059 6.2988 26.6333 6.2988C29.6118 6.2988 32.7368 8.5937 32.0043 13.2324C34.5434 11.6211 38.7915 11.914 41.0375 13.5742C42.0141 11.2304 44.0649 9.8632 46.5551 9.8632C50.0219 9.8632 51.5844 12.5976 51.5844 16.5039C56.2231 15.8203 59.4458 17.6269 59.4458 21.9726C59.4458 24.2675 57.5903 26.3671 55.2465 26.9043L58.6645 32.4707C62.7661 30.6152 65.6469 26.3671 65.6469 21.5332C65.6469 14.6972 61.4477 9.96089 55.1977 9.76559C53.3911 6.00579 50.4614 3.5644 46.2133 3.5644C43.5766 3.5644 41.0864 4.4433 39.1821 6.1523C38.352 5.957 37.1801 5.8593 36.2524 6.0058C34.4946 2.2949 30.7836 0 26.6333 0C20.9204 0 17.2583 3.5644 16.6235 6.9824C13.8403 6.8359 11.643 9.52139 11.643 11.7675C5.5883 11.5234 0.559 16.4062 0.559 22.5585C0.559 27.1972 3.4887 31.3476 7.6391 32.8613ZM54.3188 92.4804C51.5844 92.4804 48.7524 90.7714 48.8012 87.2558C45.1391 88.5254 41.0864 86.6211 41.0864 82.5683C41.0864 78.2714 44.4067 76.0253 49.3383 77.0507C47.9711 73.6816 49.6313 68.9453 54.3188 68.9453C58.811 68.9453 60.7641 73.3886 59.4946 77.1484C63.059 76.6601 65.4516 78.955 65.4516 82.8125C65.4516 86.0351 63.059 87.8906 59.3969 87.5488C59.6411 90.4296 56.9555 92.4804 54.3188 92.4804Z" fill="#E5E5E5"/>
</svg>
