<svg width="17" height="18" viewBox="0 0 17 18" fill="none" xmlns="http://www.w3.org/2000/svg">
<path fill-rule="evenodd" clip-rule="evenodd" d="M12.2894 7.1678C12.2894 10.028 9.97998 12.3356 7.14471 12.3356C4.30945 12.3356 2 10.028 2 7.1678C2 4.30761 4.30945 2 7.14471 2C9.97998 2 12.2894 4.30761 12.2894 7.1678ZM11.1818 13.0825C10.0333 13.873 8.64284 14.3356 7.14471 14.3356C3.1988 14.3356 0 11.1265 0 7.1678C0 3.20913 3.1988 0 7.14471 0C11.0906 0 14.2894 3.20913 14.2894 7.1678C14.2894 8.90052 13.6766 10.4896 12.6565 11.7289L16.7838 15.8696L15.3674 17.2815L11.1818 13.0825Z" fill="000"/>
</svg>
