<svg width="7" height="7" viewBox="0 0 7 7" fill="none" xmlns="http://www.w3.org/2000/svg">
<path d="M0.127501 6.87044C0.305849 7.04319 0.595656 7.04319 0.768433 6.87044L3.49938 4.13424L6.2359 6.87044C6.40309 7.04319 6.69848 7.04319 6.87126 6.87044C7.04403 6.69211 7.04403 6.40233 6.87126 6.23515L4.13474 3.49896L6.87126 0.768338C7.04403 0.595593 7.0496 0.30024 6.87126 0.127483C6.69291 -0.0396925 6.40309 -0.0396925 6.2359 0.127483L3.49938 2.86367L0.768433 0.127483C0.595656 -0.0396925 0.300267 -0.0452734 0.127501 0.127483C-0.0397023 0.305809 -0.0397023 0.595593 0.127501 0.768338L2.86402 3.49896L0.127501 6.23515C-0.0397023 6.40233 -0.0452758 6.69768 0.127501 6.87044Z" fill="#E5E5E5"/>
</svg>
